<?xml version="1.0" encoding="UTF-8" standalone="no"?>
<!-- Created with Inkscape (http://www.inkscape.org/) -->

<svg
   width="193.50601mm"
   height="226.02138mm"
   viewBox="0 0 193.50601 226.02138"
   version="1.1"
   id="svg1"
   xml:space="preserve"
   xmlns="http://www.w3.org/2000/svg"
   xmlns:svg="http://www.w3.org/2000/svg"><defs
     id="defs1" /><g
     id="layer1"
     transform="translate(-285.50068,-141.56075)"><path
       style="fill:#0066ff;fill-opacity:1;stroke-width:1.02266"
       d="m 377.05632,278.36943 c -1.43533,-1.00799 -4.34,-3.55247 -6.45482,-5.65438 -9.88076,-9.82048 -15.96115,-21.5294 -18.30005,-35.24016 -0.75239,-4.41056 -1.05493,-10.96849 -0.52965,-11.48075 0.17462,-0.17028 2.09458,-1.03664 4.26657,-1.92523 l 3.94909,-1.6156 0.24299,6.52615 c 0.18802,5.04967 0.4452,7.38802 1.13673,10.33566 2.40568,10.25425 8.30517,20.69999 15.65858,27.72541 l 2.90527,2.77568 1.88362,-1.6262 c 2.25134,-1.94365 4.75311,-4.75988 7.58745,-8.54109 1.14707,-1.53027 2.16473,-2.78231 2.26147,-2.78231 0.37882,0 6.12876,3.61107 6.54112,4.10795 0.50404,0.60733 0.51894,0.57779 -2.09395,4.14924 -2.36711,3.23547 -6.15183,7.37258 -9.15366,10.00593 -2.79871,2.45516 -6.34898,5.07241 -6.88069,5.07241 -0.22571,0 -1.58473,-0.82472 -3.02007,-1.83271 z m 2.90354,-16.02794 c -7.67226,-8.10653 -12.06853,-16.71878 -13.86023,-27.15216 -0.72642,-4.23002 -0.75312,-13.24866 -0.0413,-13.96046 1.19659,-1.19658 11.5625,-2.12997 18.38199,-1.65518 7.46596,0.51981 15.17677,2.41522 21.46214,5.27564 l 2.83399,1.28972 -0.23054,4.32428 c -0.40058,7.51357 -2.16261,15.08872 -5.09772,21.91567 -1.5332,3.56616 -3.40768,7.01886 -3.72535,6.86193 -0.11245,-0.0556 -1.76716,-1.0433 -3.67714,-2.19499 l -3.47269,-2.09398 1.38252,-2.72252 c 1.42585,-2.80781 2.97515,-6.51273 2.79372,-6.68073 -0.0566,-0.0525 -1.53732,-0.59965 -3.2905,-1.21608 -4.14547,-1.4576 -8.42789,-2.18536 -12.85952,-2.18536 -3.53432,0 -3.56491,0.007 -3.31646,0.80777 0.99865,3.21684 4.88597,9.18604 8.35923,12.83609 1.82427,1.91712 2.09711,2.36682 1.73759,2.86384 -1.41405,1.95495 -4.75535,5.7508 -5.06214,5.7508 -0.20011,0 -1.24301,-0.92892 -2.31756,-2.06428 z m 19.46971,-26.88598 c 0.12556,-0.91611 0.2283,-2.1876 0.2283,-2.82555 v -1.1599 l -3.85934,-1.11739 c -5.58128,-1.61595 -9.88651,-2.20363 -16.15537,-2.20528 l -5.47487,-0.001 v 1.57068 c 0,0.86385 0.0967,2.05443 0.21502,2.64573 l 0.21501,1.07507 6.51638,0.20186 c 6.87411,0.21293 10.1217,0.75722 15.13259,2.53622 1.38217,0.49072 2.61226,0.90423 2.73352,0.91893 0.12125,0.0148 0.32318,-0.72281 0.44876,-1.63892 z"
       id="path5" /></g></svg>
