<?xml version="1.0" encoding="UTF-8"?>
<svg xmlns="http://www.w3.org/2000/svg" xmlns:xlink="http://www.w3.org/1999/xlink" width="500px" height="889px" viewBox="0 0 500 888" version="1.1">
<g id="surface1">
<path style=" stroke:none;fill-rule:nonzero;fill:rgb(3.529412%,3.921569%,3.921569%);fill-opacity:1;" d="M 0 0 C 165 0 330 0 500 0 C 500 293.039062 500 586.078125 500 888 C 335 888 170 888 0 888 C 0 594.960938 0 301.921875 0 0 Z M 0 0 "/>
<path style=" stroke:none;fill-rule:nonzero;fill:rgb(3.529412%,3.921569%,3.921569%);fill-opacity:1;" d="M 135.832031 305.59375 C 136.234375 305.59375 136.628906 305.589844 137.039062 305.589844 C 138.382812 305.582031 139.726562 305.589844 141.066406 305.589844 C 142.035156 305.589844 143.003906 305.582031 143.976562 305.582031 C 146.644531 305.574219 149.3125 305.574219 151.984375 305.578125 C 154.855469 305.578125 157.734375 305.574219 160.609375 305.570312 C 166.246094 305.5625 171.882812 305.558594 177.523438 305.558594 C 182.105469 305.558594 186.683594 305.554688 191.265625 305.554688 C 192.585938 305.554688 193.902344 305.550781 195.222656 305.550781 C 195.550781 305.550781 195.875 305.550781 196.214844 305.550781 C 205.433594 305.542969 214.652344 305.539062 223.871094 305.539062 C 224.222656 305.539062 224.570312 305.539062 224.925781 305.539062 C 226.6875 305.539062 228.449219 305.539062 230.21875 305.539062 C 230.5625 305.539062 230.914062 305.539062 231.277344 305.539062 C 231.984375 305.539062 232.691406 305.539062 233.398438 305.539062 C 244.410156 305.539062 255.421875 305.535156 266.4375 305.523438 C 278.800781 305.503906 291.171875 305.5 303.542969 305.5 C 304.859375 305.5 306.175781 305.5 307.496094 305.5 C 307.984375 305.5 307.984375 305.5 308.480469 305.5 C 313.707031 305.5 318.9375 305.496094 324.164062 305.488281 C 329.414062 305.480469 334.671875 305.480469 339.921875 305.484375 C 342.769531 305.488281 345.613281 305.488281 348.460938 305.480469 C 351.066406 305.472656 353.671875 305.476562 356.277344 305.480469 C 357.21875 305.484375 358.160156 305.480469 359.105469 305.476562 C 360.386719 305.472656 361.667969 305.476562 362.945312 305.484375 C 363.316406 305.480469 363.679688 305.472656 364.058594 305.464844 C 368.050781 305.519531 371.277344 307.191406 374.171875 309.875 C 377.25 313.300781 377.847656 316.707031 377.84375 321.183594 C 377.84375 321.578125 377.847656 321.972656 377.847656 322.382812 C 377.851562 323.707031 377.851562 325.035156 377.851562 326.367188 C 377.855469 327.324219 377.855469 328.28125 377.859375 329.246094 C 377.863281 331.886719 377.867188 334.527344 377.875 337.171875 C 377.875 339.433594 377.882812 341.699219 377.886719 343.960938 C 377.898438 351.421875 377.90625 358.886719 377.917969 366.347656 C 377.921875 368.289062 377.921875 370.234375 377.925781 372.175781 C 377.9375 384.234375 377.953125 396.296875 377.960938 408.355469 C 377.960938 411.148438 377.964844 413.941406 377.964844 416.734375 C 377.964844 417.257812 377.964844 417.257812 377.964844 417.789062 C 377.972656 429.042969 377.992188 440.289062 378.015625 451.539062 C 378.039062 463.113281 378.054688 474.679688 378.054688 486.25 C 378.058594 487.882812 378.058594 489.519531 378.058594 491.152344 C 378.058594 491.640625 378.058594 491.640625 378.058594 492.128906 C 378.058594 497.300781 378.074219 502.480469 378.089844 507.652344 C 378.101562 512.851562 378.109375 518.054688 378.101562 523.257812 C 378.097656 526.074219 378.101562 528.890625 378.117188 531.707031 C 378.128906 534.289062 378.128906 536.867188 378.117188 539.453125 C 378.117188 540.382812 378.121094 541.316406 378.128906 542.246094 C 378.171875 547.847656 377.980469 552.429688 374.164062 556.90625 C 369.304688 561.597656 363.5625 561.277344 357.25 561.253906 C 356.28125 561.253906 355.3125 561.257812 354.34375 561.261719 C 351.695312 561.269531 349.046875 561.265625 346.394531 561.261719 C 343.527344 561.257812 340.667969 561.265625 337.808594 561.269531 C 332.527344 561.28125 327.25 561.28125 321.964844 561.277344 C 317.085938 561.273438 312.210938 561.273438 307.332031 561.277344 C 306.675781 561.277344 306.023438 561.277344 305.367188 561.277344 C 304.378906 561.277344 303.394531 561.28125 302.410156 561.28125 C 293.238281 561.285156 284.066406 561.292969 274.894531 561.28125 C 274.546875 561.28125 274.207031 561.28125 273.851562 561.28125 C 271.042969 561.28125 268.238281 561.277344 265.429688 561.277344 C 254.484375 561.269531 243.539062 561.273438 232.585938 561.285156 C 220.285156 561.304688 207.980469 561.308594 195.675781 561.304688 C 194.367188 561.304688 193.054688 561.304688 191.742188 561.304688 C 191.417969 561.304688 191.097656 561.304688 190.765625 561.304688 C 185.890625 561.300781 181.015625 561.304688 176.136719 561.3125 C 170.59375 561.320312 165.050781 561.320312 159.507812 561.3125 C 156.679688 561.304688 153.851562 561.304688 151.023438 561.3125 C 148.433594 561.320312 145.84375 561.316406 143.253906 561.304688 C 142.316406 561.304688 141.378906 561.304688 140.445312 561.3125 C 131.511719 561.363281 131.511719 561.363281 127.777344 558.699219 C 127.347656 558.425781 126.917969 558.148438 126.476562 557.863281 C 123.589844 554.976562 122.125 551.59375 122.101562 547.5 C 122.101562 547.132812 122.105469 546.765625 122.105469 546.390625 C 122.105469 545.988281 122.105469 545.589844 122.101562 545.183594 C 122.097656 543.847656 122.101562 542.511719 122.105469 541.175781 C 122.105469 540.214844 122.101562 539.246094 122.101562 538.28125 C 122.097656 535.628906 122.097656 532.96875 122.101562 530.316406 C 122.105469 527.453125 122.101562 524.585938 122.097656 521.726562 C 122.09375 516.441406 122.09375 511.15625 122.097656 505.871094 C 122.101562 500.988281 122.101562 496.105469 122.097656 491.222656 C 122.097656 490.898438 122.097656 490.574219 122.097656 490.238281 C 122.097656 488.925781 122.097656 487.609375 122.097656 486.296875 C 122.097656 473.964844 122.097656 461.632812 122.101562 449.304688 C 122.105469 438.339844 122.105469 427.382812 122.101562 416.429688 C 122.097656 404.117188 122.097656 391.8125 122.097656 379.503906 C 122.097656 378.1875 122.097656 376.878906 122.097656 375.566406 C 122.097656 375.246094 122.097656 374.917969 122.101562 374.585938 C 122.101562 369.707031 122.097656 364.824219 122.097656 359.949219 C 122.09375 354.398438 122.09375 348.851562 122.101562 343.300781 C 122.101562 340.472656 122.101562 337.640625 122.101562 334.808594 C 122.097656 332.214844 122.097656 329.621094 122.105469 327.035156 C 122.105469 326.09375 122.105469 325.15625 122.101562 324.214844 C 122.097656 322.945312 122.101562 321.671875 122.105469 320.394531 C 122.105469 320.03125 122.101562 319.664062 122.101562 319.285156 C 122.125 315.316406 123.136719 312.3125 125.925781 309.414062 C 127.253906 308.371094 128.628906 307.472656 130.089844 306.636719 C 130.460938 306.394531 130.460938 306.394531 130.835938 306.148438 C 132.476562 305.5 134.097656 305.582031 135.832031 305.59375 Z M 135.832031 305.59375 "/>
<path style=" stroke:none;fill-rule:nonzero;fill:rgb(3.529412%,3.921569%,4.313726%);fill-opacity:1;" d="M 243.519531 335.773438 C 245.796875 337.222656 247.648438 338.949219 249.535156 340.859375 C 251.058594 340.199219 252.035156 339.363281 253.210938 338.203125 C 257.824219 333.996094 263.117188 332.726562 269.164062 332.84375 C 274.253906 333.101562 278.695312 335.078125 282.410156 338.550781 C 282.828125 338.898438 282.828125 338.898438 283.265625 339.25 C 287.023438 342.53125 289.382812 347.972656 289.8125 352.890625 C 289.871094 354.132812 289.859375 355.339844 289.8125 356.585938 C 290.167969 356.488281 290.167969 356.488281 290.535156 356.382812 C 299.195312 354.285156 308.664062 355.761719 316.351562 360.230469 C 317.078125 360.703125 317.804688 361.183594 318.519531 361.671875 C 318.863281 361.898438 319.210938 362.128906 319.566406 362.359375 C 326.128906 366.992188 330.65625 375.207031 332.125 382.988281 C 332.855469 388.222656 332.554688 393.519531 331.480469 398.675781 C 331.742188 398.777344 331.996094 398.875 332.261719 398.984375 C 334.949219 400.09375 337.132812 401.433594 339.351562 403.296875 C 339.621094 403.511719 339.894531 403.71875 340.171875 403.9375 C 342.21875 405.710938 343.398438 407.828125 344.617188 410.210938 C 344.777344 410.519531 344.9375 410.824219 345.105469 411.148438 C 347.351562 415.765625 347.523438 421.605469 346.039062 426.484375 C 344.324219 431.03125 341.835938 434.582031 337.964844 437.527344 C 338.332031 437.964844 338.707031 438.402344 339.09375 438.851562 C 339.34375 439.152344 339.601562 439.457031 339.859375 439.765625 C 340.460938 440.445312 341.082031 441.105469 341.722656 441.746094 C 347.316406 447.472656 350.601562 455.503906 350.636719 463.511719 C 350.433594 473.3125 347.109375 481.390625 340.394531 488.542969 C 336.773438 491.996094 332.605469 494.492188 327.777344 495.800781 C 327.929688 496.257812 328.082031 496.714844 328.242188 497.1875 C 328.425781 501.21875 328.609375 505.34375 327.3125 509.210938 C 327.164062 509.675781 327.019531 510.140625 326.867188 510.617188 C 324.507812 517.390625 320.21875 522.644531 313.683594 525.804688 C 312.835938 526.148438 311.976562 526.476562 311.109375 526.785156 C 310.699219 526.933594 310.289062 527.082031 309.867188 527.234375 C 304.679688 528.796875 298.09375 529.117188 293.011719 527.046875 C 291.871094 526.710938 291.382812 526.8125 290.277344 527.25 C 289.398438 527.8125 288.527344 528.40625 287.671875 529.015625 C 281.324219 533.316406 274.328125 534.703125 266.722656 533.425781 C 260.378906 531.910156 254.230469 528.578125 250.464844 523.085938 C 250.464844 522.785156 250.464844 522.476562 250.464844 522.164062 C 250.15625 522.46875 249.851562 522.769531 249.535156 523.085938 C 249.324219 523.300781 249.105469 523.511719 248.882812 523.730469 C 248.371094 524.246094 247.878906 524.777344 247.394531 525.320312 C 243.6875 529.363281 238.6875 532.105469 233.332031 533.265625 C 232.804688 533.390625 232.804688 533.390625 232.261719 533.515625 C 225.066406 534.730469 218.117188 533.09375 212.035156 529.101562 C 211.527344 528.660156 211.023438 528.203125 210.535156 527.738281 C 209.324219 526.628906 209.324219 526.628906 207.757812 526.816406 C 206.859375 527.042969 205.960938 527.265625 205.0625 527.496094 C 197.671875 529.195312 190.480469 528.445312 183.882812 524.617188 C 176.8125 519.960938 173.40625 513.863281 171.484375 505.738281 C 170.949219 502.472656 171.167969 499.042969 171.757812 495.800781 C 171.175781 495.636719 170.59375 495.476562 169.996094 495.308594 C 162.140625 492.652344 156.378906 486.289062 152.660156 479.121094 C 148.855469 471.230469 148.089844 461.800781 150.777344 453.394531 C 153.085938 447.601562 156.535156 442.699219 161.109375 438.449219 C 161.414062 438.449219 161.722656 438.449219 162.035156 438.449219 C 161.839844 438.234375 161.644531 438.011719 161.441406 437.785156 C 160.550781 436.78125 159.671875 435.769531 158.796875 434.75 C 158.363281 434.25 158.363281 434.25 157.925781 433.742188 C 153.347656 428.1875 152.820312 422.265625 153.242188 415.328125 C 153.980469 410.089844 157.28125 405.75 161.214844 402.382812 C 163.34375 400.839844 165.652344 399.726562 168.054688 398.675781 C 168.019531 398.425781 167.992188 398.179688 167.957031 397.917969 C 166.707031 386.882812 167.496094 377.183594 174.421875 368.089844 C 179.078125 362.527344 184.683594 358.65625 191.667969 356.585938 C 192.015625 356.484375 192.359375 356.378906 192.722656 356.269531 C 198.308594 354.886719 204.625 355.367188 210.1875 356.585938 C 210.164062 356.25 210.144531 355.914062 210.121094 355.570312 C 209.890625 349.195312 212.179688 343.65625 216.4375 338.925781 C 223.980469 331.765625 234.621094 331.300781 243.519531 335.773438 Z M 243.519531 335.773438 "/>
<path style=" stroke:none;fill-rule:nonzero;fill:rgb(0%,86.666667%,98.431373%);fill-opacity:1;" d="M 181.765625 251.539062 C 184.378906 253.085938 186.867188 255.6875 187.964844 258.539062 C 188.289062 261.820312 188.542969 265.46875 186.765625 268.382812 C 185.496094 269.921875 184.054688 271.273438 182.410156 272.414062 C 182.101562 272.414062 181.796875 272.414062 181.480469 272.414062 C 181.480469 280.347656 181.480469 288.285156 181.480469 296.460938 C 202.566406 296.460938 223.648438 296.460938 245.367188 296.460938 C 245.277344 282.414062 245.277344 282.414062 245.160156 268.359375 C 245.152344 265.640625 245.152344 265.640625 245.148438 264.367188 C 245.148438 263.476562 245.140625 262.589844 245.125 261.699219 C 245.109375 260.355469 245.109375 259.007812 245.109375 257.664062 C 245.09375 257.070312 245.09375 257.070312 245.082031 256.464844 C 245.101562 254.449219 245.183594 253.6875 246.480469 252.046875 C 248.074219 250.847656 248.929688 250.828125 250.855469 250.9375 C 252.34375 251.238281 253.15625 251.878906 254.167969 252.988281 C 254.769531 254.796875 254.691406 256.507812 254.683594 258.394531 C 254.683594 259.019531 254.683594 259.019531 254.683594 259.660156 C 254.683594 261.015625 254.679688 262.363281 254.675781 263.714844 C 254.675781 264.554688 254.675781 265.386719 254.675781 266.222656 C 254.671875 269.3125 254.664062 272.410156 254.65625 275.503906 C 254.648438 282.421875 254.640625 289.335938 254.632812 296.460938 C 275.710938 296.460938 296.796875 296.460938 318.519531 296.460938 C 318.429688 282.414062 318.429688 282.414062 318.3125 268.359375 C 318.296875 265.640625 318.296875 265.640625 318.296875 264.367188 C 318.292969 263.476562 318.285156 262.589844 318.273438 261.699219 C 318.253906 260.355469 318.253906 259.007812 318.253906 257.664062 C 318.246094 257.265625 318.238281 256.871094 318.230469 256.464844 C 318.246094 254.449219 318.332031 253.6875 319.625 252.046875 C 320.867188 251.113281 321.382812 250.820312 322.917969 250.847656 C 323.253906 250.84375 323.59375 250.839844 323.945312 250.828125 C 325.59375 251.3125 326.253906 252.109375 327.3125 253.449219 C 327.644531 254.859375 327.609375 256.222656 327.578125 257.664062 C 327.578125 258.078125 327.578125 258.5 327.578125 258.933594 C 327.578125 260.316406 327.5625 261.699219 327.539062 263.082031 C 327.535156 264.046875 327.535156 265.007812 327.53125 265.964844 C 327.523438 268.496094 327.5 271.023438 327.472656 273.546875 C 327.449219 276.125 327.4375 278.707031 327.425781 281.285156 C 327.40625 286.34375 327.367188 291.40625 327.3125 296.460938 C 327.800781 296.460938 328.28125 296.457031 328.78125 296.457031 C 333.351562 296.4375 337.921875 296.421875 342.492188 296.414062 C 344.839844 296.410156 347.191406 296.40625 349.539062 296.390625 C 351.808594 296.382812 354.078125 296.378906 356.34375 296.375 C 357.210938 296.375 358.074219 296.371094 358.9375 296.367188 C 360.152344 296.355469 361.367188 296.355469 362.582031 296.355469 C 362.933594 296.351562 363.285156 296.351562 363.648438 296.347656 C 370.351562 296.375 375.777344 298.867188 380.617188 303.398438 C 385.085938 308.015625 387.199219 314.03125 387.144531 320.378906 C 387.144531 320.765625 387.144531 321.144531 387.144531 321.542969 C 387.140625 322.796875 387.136719 324.054688 387.125 325.3125 C 387.125 326.1875 387.121094 327.0625 387.121094 327.941406 C 387.117188 330.234375 387.109375 332.53125 387.101562 334.828125 C 387.09375 337.175781 387.085938 339.519531 387.082031 341.867188 C 387.070312 346.46875 387.058594 351.0625 387.035156 355.664062 C 390.355469 355.675781 393.675781 355.667969 396.996094 355.640625 C 398.125 355.636719 399.257812 355.636719 400.386719 355.640625 C 402.007812 355.652344 403.632812 355.632812 405.257812 355.617188 C 406.015625 355.628906 406.015625 355.628906 406.785156 355.636719 C 409.328125 355.660156 409.328125 355.660156 411.457031 354.484375 C 412.039062 353.667969 412.496094 352.84375 412.964844 351.960938 C 415.3125 349.820312 417.667969 348.996094 420.832031 348.871094 C 424.3125 349.039062 427.085938 349.863281 429.570312 352.382812 C 432.101562 355.542969 432.800781 358.605469 432.410156 362.601562 C 431.703125 365.902344 429.796875 368.382812 427.113281 370.375 C 423.941406 371.84375 420.695312 372.585938 417.320312 371.445312 C 414.371094 370.097656 412.117188 368.3125 410.648438 365.375 C 402.855469 365.21875 395.066406 365.070312 387.035156 364.914062 C 387.035156 385.976562 387.035156 407.035156 387.035156 428.738281 C 400.949219 428.664062 400.949219 428.664062 414.859375 428.574219 C 417.554688 428.5625 417.554688 428.5625 418.820312 428.558594 C 419.695312 428.558594 420.578125 428.550781 421.457031 428.542969 C 422.789062 428.53125 424.125 428.523438 425.457031 428.53125 C 426.042969 428.515625 426.042969 428.515625 426.640625 428.507812 C 428.503906 428.519531 429.410156 428.597656 431.019531 429.617188 C 432.242188 430.902344 432.394531 431.273438 432.496094 433.074219 C 432.375 435.410156 432.375 435.410156 431.480469 436.597656 C 429.390625 438.238281 427.574219 438.175781 425.035156 438.144531 C 424.617188 438.144531 424.203125 438.144531 423.773438 438.144531 C 422.421875 438.144531 421.070312 438.132812 419.726562 438.125 C 418.890625 438.121094 418.054688 438.121094 417.222656 438.121094 C 414.132812 438.113281 411.046875 438.089844 407.957031 438.074219 C 401.054688 438.046875 394.148438 438.015625 387.035156 437.984375 C 387.035156 459.050781 387.035156 480.113281 387.035156 501.8125 C 400.949219 501.738281 400.949219 501.738281 414.859375 501.644531 C 417.554688 501.636719 417.554688 501.636719 418.820312 501.636719 C 419.695312 501.632812 420.578125 501.625 421.457031 501.617188 C 422.789062 501.601562 424.125 501.601562 425.457031 501.601562 C 425.847656 501.59375 426.238281 501.589844 426.640625 501.582031 C 428.503906 501.59375 429.410156 501.671875 431.019531 502.691406 C 432.242188 503.976562 432.394531 504.347656 432.496094 506.148438 C 432.414062 507.691406 432.351562 508.441406 431.480469 509.675781 C 429.65625 510.890625 428.097656 510.722656 425.980469 510.703125 C 425.5625 510.703125 425.144531 510.703125 424.710938 510.703125 C 423.320312 510.703125 421.925781 510.699219 420.539062 510.691406 C 419.574219 510.6875 418.609375 510.6875 417.648438 510.6875 C 415.113281 510.683594 412.574219 510.671875 410.039062 510.664062 C 407.453125 510.652344 404.859375 510.648438 402.273438 510.644531 C 397.195312 510.632812 392.117188 510.617188 387.035156 510.601562 C 387.039062 511.078125 387.042969 511.558594 387.046875 512.046875 C 387.085938 516.578125 387.113281 521.109375 387.132812 525.640625 C 387.144531 527.96875 387.15625 530.296875 387.179688 532.625 C 387.195312 534.882812 387.210938 537.132812 387.214844 539.386719 C 387.21875 540.242188 387.222656 541.09375 387.230469 541.949219 C 387.328125 550.066406 386.203125 557.492188 380.414062 563.726562 C 375.4375 568.289062 369.386719 570.34375 362.738281 570.316406 C 362.355469 570.316406 361.96875 570.316406 361.574219 570.316406 C 360.3125 570.316406 359.050781 570.308594 357.785156 570.304688 C 356.910156 570.304688 356.027344 570.304688 355.152344 570.304688 C 352.847656 570.304688 350.539062 570.300781 348.234375 570.292969 C 345.875 570.289062 343.523438 570.289062 341.167969 570.285156 C 336.550781 570.28125 331.929688 570.269531 327.3125 570.261719 C 327.316406 570.792969 327.320312 571.320312 327.328125 571.863281 C 327.367188 576.835938 327.390625 581.8125 327.410156 586.785156 C 327.421875 589.34375 327.433594 591.902344 327.457031 594.457031 C 327.472656 596.929688 327.488281 599.394531 327.492188 601.863281 C 327.496094 602.804688 327.5 603.746094 327.507812 604.691406 C 327.527344 606.007812 327.527344 607.324219 327.527344 608.644531 C 327.53125 609.035156 327.539062 609.425781 327.542969 609.824219 C 327.53125 611.683594 327.457031 612.589844 326.433594 614.199219 C 325.171875 615.398438 324.761719 615.5625 323.003906 615.734375 C 321.027344 615.5625 320.359375 615.117188 318.980469 613.738281 C 318.210938 612.203125 318.460938 610.488281 318.46875 608.800781 C 318.46875 608.167969 318.46875 608.167969 318.46875 607.519531 C 318.46875 606.15625 318.46875 604.785156 318.472656 603.414062 C 318.472656 602.570312 318.476562 601.726562 318.476562 600.882812 C 318.476562 597.746094 318.484375 594.613281 318.488281 591.476562 C 318.5 584.480469 318.507812 577.476562 318.519531 570.261719 C 297.433594 570.261719 276.351562 570.261719 254.632812 570.261719 C 254.703125 583.988281 254.703125 583.988281 254.796875 597.714844 C 254.804688 600.375 254.804688 600.375 254.804688 601.621094 C 254.808594 602.488281 254.816406 603.355469 254.828125 604.222656 C 254.839844 605.539062 254.839844 606.851562 254.839844 608.171875 C 254.847656 608.75 254.847656 608.75 254.859375 609.339844 C 254.84375 611.773438 254.4375 613.210938 252.777344 615.125 C 251.105469 615.679688 249.90625 615.738281 248.148438 615.585938 C 246.578125 614.597656 245.960938 614.117188 245.367188 612.351562 C 245.328125 611.007812 245.3125 609.671875 245.316406 608.328125 C 245.316406 607.703125 245.316406 607.703125 245.316406 607.066406 C 245.316406 605.714844 245.320312 604.359375 245.324219 603.007812 C 245.324219 602.175781 245.324219 601.339844 245.324219 600.503906 C 245.328125 597.410156 245.335938 594.3125 245.34375 591.21875 C 245.351562 584.300781 245.359375 577.386719 245.367188 570.261719 C 224.289062 570.261719 203.203125 570.261719 181.480469 570.261719 C 181.480469 578.199219 181.480469 586.136719 181.480469 594.3125 C 182.242188 594.617188 183.007812 594.921875 183.796875 595.238281 C 184.699219 596.070312 184.699219 596.070312 185.503906 597.027344 C 185.773438 597.34375 186.042969 597.65625 186.320312 597.976562 C 188.546875 600.949219 188.253906 604.164062 187.964844 607.726562 C 187.214844 610.777344 184.988281 612.96875 182.410156 614.664062 C 179.285156 615.941406 175.792969 616.152344 172.511719 615.304688 C 169.695312 614.058594 167.507812 611.691406 166.125 608.972656 C 165.246094 606.128906 165.167969 602.449219 166.144531 599.609375 C 167.398438 597.484375 169.242188 595.679688 171.296875 594.3125 C 171.601562 594.3125 171.90625 594.3125 172.222656 594.3125 C 172.222656 586.375 172.222656 578.441406 172.222656 570.261719 C 169.417969 570.285156 166.613281 570.304688 163.722656 570.328125 C 161.9375 570.335938 160.152344 570.34375 158.363281 570.355469 C 155.535156 570.363281 152.703125 570.375 149.875 570.402344 C 147.585938 570.421875 145.304688 570.429688 143.019531 570.4375 C 142.152344 570.441406 141.285156 570.449219 140.417969 570.457031 C 132.203125 570.546875 125.625 569.304688 119.359375 563.554688 C 113.117188 557.035156 112.820312 549.378906 112.875 540.859375 C 112.875 539.984375 112.878906 539.113281 112.878906 538.238281 C 112.882812 535.949219 112.890625 533.660156 112.898438 531.371094 C 112.914062 528.617188 112.917969 525.863281 112.921875 523.109375 C 112.929688 518.941406 112.945312 514.769531 112.964844 510.601562 C 105.015625 510.601562 97.074219 510.601562 88.890625 510.601562 C 88.585938 511.515625 88.277344 512.429688 87.964844 513.375 C 85.847656 516 82.96875 517.324219 79.679688 517.683594 C 76.644531 517.800781 74.207031 517.578125 71.757812 515.6875 C 69.046875 513.113281 67.515625 510.878906 67.371094 507.054688 C 67.34375 503.945312 67.457031 501.472656 69.480469 498.960938 C 72.660156 495.925781 75.578125 494.644531 79.964844 494.6875 C 82.878906 495.046875 85.382812 496.398438 87.40625 498.523438 C 88.890625 500.507812 88.890625 500.507812 88.890625 501.8125 C 96.832031 501.8125 104.777344 501.8125 112.964844 501.8125 C 112.964844 480.75 112.964844 459.6875 112.964844 437.984375 C 99.222656 438.058594 99.222656 438.058594 85.480469 438.15625 C 82.820312 438.164062 82.820312 438.164062 81.574219 438.164062 C 80.707031 438.167969 79.839844 438.171875 78.972656 438.179688 C 77.652344 438.199219 76.332031 438.199219 75.015625 438.199219 C 74.632812 438.203125 74.246094 438.210938 73.851562 438.214844 C 71.398438 438.199219 70 437.769531 68.054688 436.140625 C 67.53125 435.085938 67.46875 434.386719 67.417969 433.214844 C 67.394531 432.867188 67.375 432.515625 67.351562 432.152344 C 67.726562 430.433594 68.53125 429.816406 69.910156 428.738281 C 71.316406 428.414062 72.683594 428.441406 74.125 428.472656 C 74.546875 428.472656 74.976562 428.472656 75.417969 428.472656 C 76.796875 428.476562 78.171875 428.496094 79.554688 428.511719 C 80.402344 428.515625 81.257812 428.515625 82.109375 428.519531 C 85.265625 428.53125 88.425781 428.5625 91.578125 428.59375 C 102.164062 428.664062 102.164062 428.664062 112.964844 428.738281 C 112.964844 407.671875 112.964844 386.613281 112.964844 364.914062 C 99.070312 365.003906 99.070312 365.003906 85.179688 365.121094 C 82.488281 365.128906 82.488281 365.128906 81.226562 365.132812 C 80.347656 365.136719 79.46875 365.148438 78.59375 365.15625 C 77.261719 365.171875 75.929688 365.175781 74.597656 365.175781 C 74.207031 365.179688 73.820312 365.191406 73.414062 365.199219 C 71.492188 365.179688 70.269531 365.03125 68.742188 363.8125 C 67.503906 362.511719 67.214844 362.046875 67.242188 360.285156 C 67.238281 359.90625 67.230469 359.523438 67.222656 359.132812 C 67.765625 357.433594 68.859375 356.523438 70.367188 355.664062 C 71.785156 355.347656 73.152344 355.367188 74.597656 355.398438 C 75.011719 355.398438 75.425781 355.398438 75.855469 355.398438 C 77.222656 355.398438 78.589844 355.417969 79.960938 355.4375 C 80.910156 355.441406 81.863281 355.441406 82.8125 355.445312 C 85.308594 355.457031 87.808594 355.476562 90.304688 355.503906 C 92.855469 355.53125 95.40625 355.539062 97.960938 355.550781 C 102.960938 355.574219 107.960938 355.613281 112.964844 355.664062 C 112.960938 355.167969 112.957031 354.679688 112.953125 354.175781 C 112.914062 349.527344 112.886719 344.878906 112.867188 340.238281 C 112.855469 337.847656 112.84375 335.457031 112.820312 333.070312 C 112.804688 330.761719 112.789062 328.453125 112.785156 326.140625 C 112.78125 325.265625 112.777344 324.390625 112.769531 323.511719 C 112.683594 315.75 113.589844 309.359375 118.960938 303.300781 C 123.707031 298.710938 129.9375 296.296875 136.484375 296.355469 C 136.871094 296.355469 137.261719 296.355469 137.660156 296.355469 C 138.933594 296.355469 140.203125 296.367188 141.480469 296.371094 C 142.367188 296.375 143.253906 296.375 144.140625 296.375 C 146.46875 296.378906 148.792969 296.386719 151.121094 296.398438 C 153.914062 296.410156 156.710938 296.414062 159.503906 296.417969 C 163.746094 296.429688 167.980469 296.449219 172.222656 296.460938 C 172.222656 288.527344 172.222656 280.589844 172.222656 272.414062 C 171.457031 272.105469 170.695312 271.800781 169.910156 271.484375 C 167.253906 269.179688 165.675781 266.546875 165.117188 263.089844 C 164.914062 260.105469 165.910156 257.742188 167.589844 255.300781 C 171.414062 251.203125 176.292969 249.714844 181.765625 251.539062 Z M 124.605469 310.957031 C 124.425781 311.210938 124.253906 311.464844 124.074219 311.722656 C 123.796875 312.125 123.519531 312.527344 123.234375 312.9375 C 122.0625 315.277344 122.15625 317.707031 122.160156 320.277344 C 122.15625 320.671875 122.15625 321.066406 122.15625 321.480469 C 122.152344 322.808594 122.152344 324.144531 122.152344 325.480469 C 122.152344 326.445312 122.152344 327.410156 122.148438 328.375 C 122.144531 331.027344 122.144531 333.679688 122.140625 336.335938 C 122.140625 339.195312 122.136719 342.058594 122.132812 344.914062 C 122.121094 351.5 122.117188 358.082031 122.113281 364.667969 C 122.113281 367.921875 122.109375 371.171875 122.105469 374.429688 C 122.101562 385.566406 122.09375 396.703125 122.085938 407.839844 C 122.085938 408.539062 122.085938 409.238281 122.085938 409.9375 C 122.085938 410.285156 122.085938 410.628906 122.085938 410.984375 C 122.085938 412.742188 122.085938 414.5 122.085938 416.257812 C 122.082031 416.605469 122.082031 416.953125 122.082031 417.3125 C 122.082031 428.617188 122.070312 439.917969 122.058594 451.21875 C 122.039062 463.171875 122.03125 475.125 122.03125 487.074219 C 122.027344 488.386719 122.027344 489.695312 122.027344 491.011719 C 122.027344 491.332031 122.027344 491.65625 122.027344 491.988281 C 122.027344 497.183594 122.019531 502.382812 122.007812 507.582031 C 122 512.808594 122 518.03125 122 523.257812 C 122.003906 526.089844 122.003906 528.914062 121.996094 531.746094 C 121.988281 534.339844 121.988281 536.929688 121.996094 539.519531 C 121.996094 540.457031 121.992188 541.394531 121.988281 542.332031 C 121.957031 547.695312 122.039062 551.890625 125.054688 556.503906 C 128.394531 559.691406 131.65625 561.082031 136.222656 561.074219 C 136.617188 561.074219 137.015625 561.074219 137.421875 561.078125 C 138.761719 561.078125 140.101562 561.078125 141.4375 561.078125 C 142.398438 561.082031 143.363281 561.082031 144.328125 561.085938 C 146.988281 561.09375 149.648438 561.09375 152.304688 561.09375 C 155.167969 561.097656 158.035156 561.101562 160.898438 561.105469 C 167.492188 561.113281 174.085938 561.117188 180.679688 561.121094 C 183.9375 561.121094 187.195312 561.125 190.457031 561.125 C 201.605469 561.136719 212.761719 561.144531 223.910156 561.148438 C 224.613281 561.148438 225.3125 561.148438 226.011719 561.148438 C 226.359375 561.148438 226.707031 561.148438 227.066406 561.148438 C 228.824219 561.148438 230.585938 561.148438 232.34375 561.148438 C 232.695312 561.148438 233.042969 561.148438 233.402344 561.148438 C 244.722656 561.152344 256.042969 561.164062 267.367188 561.179688 C 279.332031 561.195312 291.296875 561.203125 303.265625 561.203125 C 304.578125 561.203125 305.890625 561.203125 307.203125 561.203125 C 307.53125 561.203125 307.851562 561.203125 308.1875 561.203125 C 313.390625 561.210938 318.597656 561.214844 323.800781 561.222656 C 329.035156 561.234375 334.269531 561.234375 339.5 561.230469 C 342.339844 561.230469 345.171875 561.230469 348.007812 561.238281 C 350.601562 561.25 353.199219 561.25 355.792969 561.238281 C 356.730469 561.238281 357.671875 561.238281 358.609375 561.25 C 364.519531 561.277344 369.65625 561.257812 374.164062 556.90625 C 378.3125 552.039062 378.171875 546.921875 378.121094 540.886719 C 378.125 539.925781 378.125 538.960938 378.128906 537.996094 C 378.140625 535.359375 378.132812 532.722656 378.121094 530.085938 C 378.113281 527.238281 378.117188 524.386719 378.125 521.539062 C 378.128906 516.609375 378.125 511.679688 378.113281 506.746094 C 378.101562 501.574219 378.09375 496.398438 378.09375 491.226562 C 378.09375 490.90625 378.09375 490.582031 378.09375 490.25 C 378.09375 488.941406 378.09375 487.636719 378.09375 486.328125 C 378.097656 474.066406 378.082031 461.804688 378.058594 449.546875 C 378.042969 438.652344 378.035156 427.765625 378.035156 416.875 C 378.035156 416.175781 378.035156 415.476562 378.035156 414.777344 C 378.035156 414.261719 378.035156 414.261719 378.035156 413.730469 C 378.035156 411.988281 378.035156 410.25 378.035156 408.507812 C 378.035156 408.164062 378.035156 407.820312 378.035156 407.464844 C 378.039062 398.359375 378.03125 389.257812 378.019531 380.152344 C 378.019531 379.828125 378.019531 379.503906 378.019531 379.167969 C 378.019531 377.867188 378.015625 376.566406 378.015625 375.261719 C 378.011719 370.734375 378.011719 366.203125 378.007812 361.679688 C 378.007812 355.839844 378.003906 350.011719 377.992188 344.171875 C 377.980469 341.359375 377.976562 338.546875 377.980469 335.730469 C 377.980469 333.15625 377.976562 330.582031 377.96875 328.007812 C 377.964844 327.078125 377.964844 326.144531 377.96875 325.210938 C 377.96875 323.945312 377.964844 322.679688 377.957031 321.410156 C 377.960938 321.050781 377.960938 320.691406 377.964844 320.316406 C 377.917969 316.183594 376.632812 312.503906 373.722656 309.5 C 370.496094 306.46875 367.359375 305.5 363.015625 305.535156 C 362.617188 305.53125 362.214844 305.527344 361.804688 305.527344 C 360.464844 305.519531 359.128906 305.523438 357.789062 305.527344 C 356.820312 305.523438 355.851562 305.523438 354.882812 305.519531 C 352.21875 305.511719 349.554688 305.511719 346.890625 305.511719 C 344.019531 305.511719 341.144531 305.5 338.273438 305.496094 C 332.644531 305.484375 327.019531 305.480469 321.390625 305.480469 C 316.8125 305.480469 312.238281 305.476562 307.664062 305.472656 C 306.351562 305.472656 305.035156 305.472656 303.714844 305.472656 C 303.390625 305.464844 303.058594 305.464844 302.722656 305.464844 C 293.515625 305.457031 284.304688 305.453125 275.09375 305.453125 C 274.574219 305.453125 274.574219 305.453125 274.046875 305.453125 C 272.28125 305.453125 270.523438 305.453125 268.765625 305.453125 C 268.414062 305.453125 268.070312 305.453125 267.707031 305.453125 C 267 305.453125 266.292969 305.453125 265.585938 305.453125 C 254.597656 305.457031 243.601562 305.445312 232.609375 305.429688 C 220.25 305.40625 207.898438 305.394531 195.546875 305.394531 C 194.226562 305.394531 192.914062 305.394531 191.59375 305.394531 C 191.265625 305.394531 190.945312 305.394531 190.609375 305.394531 C 185.390625 305.398438 180.171875 305.382812 174.957031 305.375 C 169.710938 305.363281 164.464844 305.363281 159.222656 305.371094 C 156.378906 305.375 153.542969 305.375 150.699219 305.363281 C 148.097656 305.355469 145.496094 305.355469 142.894531 305.367188 C 141.953125 305.367188 141.015625 305.367188 140.074219 305.359375 C 133.867188 305.3125 128.671875 305.632812 124.605469 310.957031 Z M 124.605469 310.957031 "/>
<path style=" stroke:none;fill-rule:nonzero;fill:rgb(3.529412%,3.921569%,3.921569%);fill-opacity:1;" d="M 275.464844 344.1875 C 278.179688 346.25 279.496094 349.25 280.554688 352.425781 C 280.921875 356.011719 280.425781 358.960938 278.703125 362.136719 C 278.191406 362.722656 278.191406 362.722656 277.660156 363.320312 C 276.601562 364.800781 276.585938 365.863281 276.679688 367.644531 C 276.808594 368.699219 276.808594 368.699219 277.546875 369.800781 C 279.257812 370.777344 280.53125 370.960938 282.410156 370.460938 C 283.671875 369.765625 284.878906 369 286.089844 368.214844 C 291.675781 364.628906 297.472656 364.207031 303.917969 365.148438 C 310.976562 366.730469 316.4375 370.902344 320.367188 376.9375 C 323.472656 382.539062 324.164062 389.34375 322.511719 395.523438 C 322.148438 396.691406 321.742188 397.792969 321.257812 398.914062 C 320.828125 400.078125 320.695312 400.941406 320.691406 402.171875 C 320.675781 402.6875 320.675781 402.6875 320.664062 403.214844 C 320.890625 404.570312 321.21875 405.132812 322.222656 406.074219 C 323.75 406.503906 323.75 406.503906 325.492188 406.710938 C 329.164062 407.335938 332.199219 408.351562 334.660156 411.261719 C 337.355469 415.140625 337.992188 418.472656 337.5 423.1875 C 336.515625 426.582031 334.464844 429.171875 331.480469 431.046875 C 330.199219 431.609375 328.933594 432.0625 327.601562 432.476562 C 325.582031 433.1875 324.34375 433.882812 323.148438 435.675781 C 322.964844 437.152344 323.109375 438.433594 323.609375 439.835938 C 324.695312 440.910156 325.945312 441.5 327.3125 442.148438 C 333.738281 445.421875 337.90625 449.980469 340.414062 456.804688 C 340.898438 458.394531 341.132812 459.921875 341.203125 461.574219 C 341.226562 462.027344 341.25 462.480469 341.277344 462.949219 C 341.460938 469.511719 339.71875 475.328125 335.496094 480.460938 C 331.492188 484.652344 327.347656 486.738281 321.832031 488.277344 C 320.113281 488.785156 319.203125 489.058594 318.035156 490.46875 C 317.25 492.546875 317.886719 494.335938 318.53125 496.390625 C 319.777344 501.164062 319.285156 506.167969 317.132812 510.601562 C 314.304688 515.335938 310.382812 517.621094 305.15625 519.066406 C 301.359375 519.90625 298.089844 519.296875 294.445312 518 C 293.839844 517.617188 293.839844 517.617188 293.230469 517.222656 C 291.460938 516.246094 289.914062 516.054688 287.964844 516.613281 C 286.800781 517.554688 285.84375 518.589844 284.835938 519.699219 C 281.511719 523.140625 276.664062 524.523438 271.992188 524.648438 C 267.023438 524.507812 263.003906 522.984375 259.375 519.546875 C 256.03125 515.882812 254.484375 511.59375 254.519531 506.667969 C 254.519531 506.277344 254.519531 505.886719 254.515625 505.488281 C 254.515625 504.183594 254.519531 502.882812 254.523438 501.582031 C 254.527344 500.648438 254.523438 499.710938 254.523438 498.777344 C 254.523438 496.242188 254.53125 493.707031 254.535156 491.175781 C 254.539062 488.519531 254.539062 485.871094 254.542969 483.222656 C 254.542969 478.207031 254.554688 473.191406 254.5625 468.171875 C 254.574219 462.457031 254.578125 456.746094 254.582031 451.039062 C 254.59375 439.285156 254.609375 427.535156 254.632812 415.785156 C 256.601562 416.5625 258.449219 417.472656 260.324219 418.460938 C 265.679688 420.878906 271.917969 420.59375 277.378906 418.652344 C 283.523438 416.089844 287.707031 412.265625 290.414062 406.105469 C 291.21875 403.96875 291.9375 401.878906 292.132812 399.601562 C 292.171875 399.230469 292.210938 398.867188 292.253906 398.484375 C 292.425781 396.21875 292.425781 396.21875 291.605469 394.164062 C 290.472656 393.125 289.425781 392.679688 287.933594 392.371094 C 286.132812 392.757812 285.4375 393.59375 284.257812 394.972656 C 284.105469 395.128906 283.953125 395.28125 283.796875 395.4375 C 283.757812 396.179688 283.734375 396.921875 283.710938 397.660156 C 283.367188 401.636719 281.722656 405.183594 278.789062 407.925781 C 278.160156 408.410156 277.511719 408.871094 276.851562 409.3125 C 276.554688 409.511719 276.253906 409.710938 275.949219 409.917969 C 272.738281 411.683594 268.835938 411.730469 265.277344 411.164062 C 261.203125 409.902344 258.074219 407.589844 256.015625 403.839844 C 254.640625 401.039062 254.363281 398.707031 254.386719 395.609375 C 254.386719 395.136719 254.382812 394.664062 254.378906 394.179688 C 254.371094 392.628906 254.378906 391.074219 254.382812 389.523438 C 254.382812 388.4375 254.378906 387.355469 254.378906 386.269531 C 254.375 384.003906 254.378906 381.734375 254.386719 379.46875 C 254.398438 376.566406 254.390625 373.667969 254.382812 370.765625 C 254.375 368.527344 254.375 366.292969 254.382812 364.054688 C 254.382812 362.984375 254.382812 361.910156 254.378906 360.839844 C 254.371094 359.34375 254.378906 357.847656 254.386719 356.351562 C 254.386719 355.914062 254.382812 355.476562 254.378906 355.027344 C 254.414062 352.1875 254.984375 350.214844 256.480469 347.796875 C 256.730469 347.398438 256.980469 347 257.234375 346.585938 C 262.132812 341.695312 269.417969 340.617188 275.464844 344.1875 Z M 275.464844 344.1875 "/>
<path style=" stroke:none;fill-rule:nonzero;fill:rgb(0%,86.666667%,98.431373%);fill-opacity:1;" d="M 243.519531 335.773438 C 245.796875 337.222656 247.648438 338.949219 249.535156 340.859375 C 251.058594 340.199219 252.035156 339.363281 253.210938 338.203125 C 257.824219 333.996094 263.117188 332.726562 269.164062 332.84375 C 274.253906 333.101562 278.695312 335.078125 282.410156 338.550781 C 282.828125 338.898438 282.828125 338.898438 283.265625 339.25 C 287.023438 342.53125 289.382812 347.972656 289.8125 352.890625 C 289.871094 354.132812 289.859375 355.339844 289.8125 356.585938 C 290.167969 356.488281 290.167969 356.488281 290.535156 356.382812 C 299.195312 354.285156 308.664062 355.761719 316.351562 360.230469 C 317.078125 360.703125 317.804688 361.183594 318.519531 361.671875 C 318.863281 361.898438 319.210938 362.128906 319.566406 362.359375 C 326.128906 366.992188 330.65625 375.207031 332.125 382.988281 C 332.855469 388.222656 332.554688 393.519531 331.480469 398.675781 C 331.742188 398.777344 331.996094 398.875 332.261719 398.984375 C 334.949219 400.09375 337.132812 401.433594 339.351562 403.296875 C 339.621094 403.511719 339.894531 403.71875 340.171875 403.9375 C 342.21875 405.710938 343.398438 407.828125 344.617188 410.210938 C 344.777344 410.519531 344.9375 410.824219 345.105469 411.148438 C 347.351562 415.765625 347.523438 421.605469 346.039062 426.484375 C 344.324219 431.03125 341.835938 434.582031 337.964844 437.527344 C 338.332031 437.964844 338.707031 438.402344 339.09375 438.851562 C 339.34375 439.152344 339.601562 439.457031 339.859375 439.765625 C 340.460938 440.445312 341.082031 441.105469 341.722656 441.746094 C 347.316406 447.472656 350.601562 455.503906 350.636719 463.511719 C 350.433594 473.3125 347.109375 481.390625 340.394531 488.542969 C 336.773438 491.996094 332.605469 494.492188 327.777344 495.800781 C 327.929688 496.257812 328.082031 496.714844 328.242188 497.1875 C 328.425781 501.21875 328.609375 505.34375 327.3125 509.210938 C 327.164062 509.675781 327.019531 510.140625 326.867188 510.617188 C 324.507812 517.390625 320.21875 522.644531 313.683594 525.804688 C 312.835938 526.148438 311.976562 526.476562 311.109375 526.785156 C 310.699219 526.933594 310.289062 527.082031 309.867188 527.234375 C 304.679688 528.796875 298.09375 529.117188 293.011719 527.046875 C 291.871094 526.710938 291.382812 526.8125 290.277344 527.25 C 289.398438 527.8125 288.527344 528.40625 287.671875 529.015625 C 281.324219 533.316406 274.328125 534.703125 266.722656 533.425781 C 260.378906 531.910156 254.230469 528.578125 250.464844 523.085938 C 250.464844 522.785156 250.464844 522.476562 250.464844 522.164062 C 250.15625 522.46875 249.851562 522.769531 249.535156 523.085938 C 249.324219 523.300781 249.105469 523.511719 248.882812 523.730469 C 248.371094 524.246094 247.878906 524.777344 247.394531 525.320312 C 243.6875 529.363281 238.6875 532.105469 233.332031 533.265625 C 232.804688 533.390625 232.804688 533.390625 232.261719 533.515625 C 225.066406 534.730469 218.117188 533.09375 212.035156 529.101562 C 211.527344 528.660156 211.023438 528.203125 210.535156 527.738281 C 209.324219 526.628906 209.324219 526.628906 207.757812 526.816406 C 206.859375 527.042969 205.960938 527.265625 205.0625 527.496094 C 197.671875 529.195312 190.480469 528.445312 183.882812 524.617188 C 176.8125 519.960938 173.40625 513.863281 171.484375 505.738281 C 170.949219 502.472656 171.167969 499.042969 171.757812 495.800781 C 171.175781 495.636719 170.59375 495.476562 169.996094 495.308594 C 162.140625 492.652344 156.378906 486.289062 152.660156 479.121094 C 148.855469 471.230469 148.089844 461.800781 150.777344 453.394531 C 153.085938 447.601562 156.535156 442.699219 161.109375 438.449219 C 161.414062 438.449219 161.722656 438.449219 162.035156 438.449219 C 161.839844 438.234375 161.644531 438.011719 161.441406 437.785156 C 160.550781 436.78125 159.671875 435.769531 158.796875 434.75 C 158.363281 434.25 158.363281 434.25 157.925781 433.742188 C 153.347656 428.1875 152.820312 422.265625 153.242188 415.328125 C 153.980469 410.089844 157.28125 405.75 161.214844 402.382812 C 163.34375 400.839844 165.652344 399.726562 168.054688 398.675781 C 168.019531 398.425781 167.992188 398.179688 167.957031 397.917969 C 166.707031 386.882812 167.496094 377.183594 174.421875 368.089844 C 179.078125 362.527344 184.683594 358.65625 191.667969 356.585938 C 192.015625 356.484375 192.359375 356.378906 192.722656 356.269531 C 198.308594 354.886719 204.625 355.367188 210.1875 356.585938 C 210.164062 356.25 210.144531 355.914062 210.121094 355.570312 C 209.890625 349.195312 212.179688 343.65625 216.4375 338.925781 C 223.980469 331.765625 234.621094 331.300781 243.519531 335.773438 Z M 221.484375 347.332031 C 219.046875 350.816406 218.96875 354.242188 219.445312 358.4375 C 220.148438 360.546875 221.144531 362.289062 222.523438 364.027344 C 223.425781 365.300781 223.335938 366.15625 223.148438 367.6875 C 222.101562 369.828125 222.101562 369.828125 220.832031 370.460938 C 217.570312 370.933594 216.003906 369.894531 213.335938 368.070312 C 207.878906 364.535156 200.925781 363.988281 194.632812 365.246094 C 193.285156 365.675781 192.023438 366.167969 190.742188 366.765625 C 190.382812 366.921875 190.027344 367.074219 189.65625 367.238281 C 183.875 370.089844 179.953125 374.886719 177.632812 380.800781 C 175.445312 387.519531 176.082031 393.464844 178.753906 399.914062 C 179.289062 401.308594 179.351562 402.28125 179.167969 403.761719 C 178.171875 405.402344 177.628906 405.988281 175.757812 406.507812 C 174.882812 406.625 174.882812 406.625 173.988281 406.742188 C 169.695312 407.433594 166.683594 409.199219 163.988281 412.625 C 162 415.621094 161.597656 418.71875 162.035156 422.265625 C 163.078125 426.292969 165.101562 429.300781 168.695312 431.425781 C 170.0625 432.136719 171.324219 432.605469 172.828125 432.929688 C 174.675781 433.398438 175.394531 433.597656 176.390625 435.210938 C 176.671875 436.660156 176.683594 437.929688 176.390625 439.375 C 175.394531 440.574219 174.324219 441.097656 172.953125 441.800781 C 166.492188 445.167969 161.761719 450.039062 159.257812 456.953125 C 157.550781 462.808594 158.207031 470.132812 161.109375 475.449219 C 161.328125 475.871094 161.546875 476.289062 161.769531 476.722656 C 165.101562 482.730469 170.15625 486.019531 176.617188 488.023438 C 176.988281 488.125 177.351562 488.230469 177.730469 488.339844 C 180.34375 489.117188 180.34375 489.117188 181.484375 490.238281 C 182.316406 491.933594 182.222656 493.578125 181.632812 495.351562 C 181.507812 495.679688 181.378906 496.007812 181.25 496.347656 C 179.601562 501.003906 180.519531 505.6875 182.410156 510.136719 C 184.96875 514.640625 188.902344 517.222656 193.632812 519.042969 C 198.570312 520.027344 202.410156 519.214844 206.945312 517.074219 C 207.097656 516.921875 207.25 516.769531 207.410156 516.613281 C 209.449219 516.355469 211.070312 516.300781 212.847656 517.394531 C 213.542969 518.105469 214.226562 518.828125 214.898438 519.5625 C 218.800781 523.199219 222.960938 524.671875 228.246094 524.5625 C 233.410156 524.242188 237.804688 522.320312 241.351562 518.507812 C 242.535156 517.035156 243.285156 515.582031 243.980469 513.839844 C 244.105469 513.53125 244.226562 513.222656 244.351562 512.90625 C 245.53125 509.519531 245.613281 506.191406 245.601562 502.648438 C 245.601562 501.640625 245.621094 500.640625 245.640625 499.640625 C 245.6875 494.386719 244.710938 490.109375 241.144531 486.089844 C 237.429688 482.722656 233.433594 482.03125 228.511719 482.183594 C 224.703125 482.652344 221.910156 484.566406 219.332031 487.335938 C 217.070312 490.289062 215.96875 493.398438 215.851562 497.097656 C 215.726562 498.246094 215.414062 498.980469 214.8125 499.964844 C 213.324219 501.027344 211.980469 501.144531 210.1875 500.886719 C 208.578125 499.644531 207.9375 498.949219 207.5625 496.925781 C 207.605469 492.679688 208.089844 489.421875 210.1875 485.625 C 210.386719 485.257812 210.585938 484.886719 210.792969 484.507812 C 213.992188 479.226562 219.203125 475.507812 225.144531 473.886719 C 231.574219 472.773438 237.25 473.761719 242.921875 476.878906 C 243.382812 477.132812 243.839844 477.382812 244.308594 477.640625 C 244.660156 477.832031 245.007812 478.027344 245.367188 478.222656 C 245.414062 462.273438 245.445312 446.316406 245.464844 430.359375 C 245.46875 428.472656 245.46875 426.589844 245.472656 424.707031 C 245.472656 424.140625 245.472656 424.140625 245.472656 423.570312 C 245.480469 417.5 245.496094 411.429688 245.511719 405.355469 C 245.53125 399.121094 245.542969 392.890625 245.542969 386.660156 C 245.546875 382.816406 245.554688 378.972656 245.570312 375.128906 C 245.582031 372.492188 245.582031 369.855469 245.582031 367.21875 C 245.578125 365.699219 245.582031 364.175781 245.589844 362.652344 C 245.597656 361.003906 245.597656 359.355469 245.59375 357.703125 C 245.601562 356.988281 245.601562 356.988281 245.609375 356.253906 C 245.574219 351.914062 244.210938 348.554688 241.214844 345.390625 C 237.9375 342.488281 234.710938 341.863281 230.382812 342.027344 C 226.523438 342.535156 223.867188 344.300781 221.484375 347.332031 Z M 257.410156 346.410156 C 255.773438 348.675781 254.578125 350.644531 254.558594 353.492188 C 254.546875 353.898438 254.542969 354.300781 254.539062 354.722656 C 254.539062 355.164062 254.535156 355.613281 254.53125 356.070312 C 254.527344 356.539062 254.523438 357.007812 254.519531 357.492188 C 254.503906 359.050781 254.496094 360.605469 254.488281 362.164062 C 254.484375 362.695312 254.480469 363.230469 254.480469 363.78125 C 254.460938 366.597656 254.453125 369.421875 254.441406 372.246094 C 254.4375 374.578125 254.417969 376.90625 254.398438 379.238281 C 254.367188 382.050781 254.351562 384.871094 254.347656 387.6875 C 254.34375 388.761719 254.335938 389.832031 254.324219 390.902344 C 254.113281 399.65625 254.113281 399.65625 258.320312 407.09375 C 259.203125 407.949219 260.085938 408.632812 261.109375 409.3125 C 261.410156 409.511719 261.707031 409.710938 262.015625 409.917969 C 265.226562 411.683594 269.128906 411.730469 272.6875 411.164062 C 276.917969 409.851562 279.8125 407.464844 282.070312 403.707031 C 283.0625 401.734375 283.421875 400.0625 283.539062 397.867188 C 283.628906 396.164062 283.722656 395.203125 284.953125 393.992188 C 285.335938 393.707031 285.714844 393.421875 286.109375 393.125 C 286.261719 392.96875 286.414062 392.820312 286.574219 392.664062 C 288.425781 392.402344 289.261719 392.613281 290.914062 393.53125 C 292.09375 394.636719 292.335938 395.453125 292.390625 397.054688 C 291.945312 403.71875 289.671875 409.785156 284.722656 414.398438 C 279.183594 418.90625 272.839844 420.414062 265.847656 420.058594 C 261.996094 419.652344 258.71875 417.90625 255.554688 415.785156 C 255.25 415.785156 254.945312 415.785156 254.632812 415.785156 C 254.585938 428.0625 254.554688 440.335938 254.535156 452.609375 C 254.523438 458.308594 254.507812 464.011719 254.488281 469.707031 C 254.46875 474.675781 254.457031 479.644531 254.457031 484.613281 C 254.453125 487.242188 254.449219 489.875 254.4375 492.5 C 254.421875 494.980469 254.417969 497.457031 254.417969 499.9375 C 254.417969 500.84375 254.414062 501.75 254.410156 502.65625 C 254.359375 509.386719 254.832031 514.753906 259.722656 519.847656 C 263.777344 523.496094 267.957031 524.660156 273.359375 524.601562 C 278.890625 524.175781 282.980469 521.929688 286.574219 517.796875 C 288.210938 516.402344 288.980469 516.253906 291.066406 516.398438 C 292.507812 516.691406 293.648438 517.277344 294.925781 517.988281 C 298.75 519.984375 302.769531 519.738281 306.800781 518.578125 C 308.953125 517.867188 310.714844 517.121094 312.5 515.6875 C 313.203125 515.175781 313.203125 515.175781 313.917969 514.644531 C 317.261719 511.769531 318.777344 507.664062 319.113281 503.359375 C 319.183594 500.261719 319.019531 497.71875 317.878906 494.839844 C 317.394531 493.339844 317.617188 492.199219 318.054688 490.710938 C 319.605469 488.652344 321.527344 488.242188 323.902344 487.5625 C 327.351562 486.488281 330.109375 485.242188 332.867188 482.851562 C 333.191406 482.597656 333.511719 482.34375 333.839844 482.082031 C 337.667969 478.734375 340.816406 472.695312 341.203125 467.585938 C 341.628906 460.105469 340.15625 453.53125 335.242188 447.699219 C 332.34375 444.6875 328.839844 442.839844 325.128906 440.992188 C 323.960938 440.226562 323.605469 439.75 323.148438 438.449219 C 322.941406 436.839844 323.023438 435.929688 323.726562 434.460938 C 325.402344 433.011719 327.109375 432.597656 329.210938 431.953125 C 332.84375 430.761719 335.042969 428.167969 336.980469 425.007812 C 338.097656 422.015625 338.03125 418.351562 337.0625 415.347656 C 336.007812 413.128906 334.792969 411.335938 332.867188 409.777344 C 332.628906 409.578125 332.390625 409.378906 332.144531 409.171875 C 329.582031 407.300781 326.820312 406.921875 323.746094 406.476562 C 322.222656 406.074219 322.222656 406.074219 321.332031 405.226562 C 320.273438 403.097656 320.558594 400.96875 321.234375 398.742188 C 321.554688 397.878906 321.886719 397.019531 322.234375 396.164062 C 324.117188 391.179688 323.640625 384.640625 321.757812 379.710938 C 319.125 373.992188 314.769531 368.984375 308.800781 366.695312 C 302.199219 364.421875 295.539062 363.855469 288.976562 366.496094 C 287.488281 367.230469 286.15625 368.066406 284.777344 368.988281 C 282.578125 370.472656 281.335938 370.96875 278.703125 370.460938 C 277.546875 369.800781 277.546875 369.800781 276.851562 368.609375 C 276.410156 366.679688 276.496094 365.113281 277.445312 363.351562 C 277.9375 362.640625 278.4375 361.933594 278.949219 361.230469 C 280.855469 358.585938 280.898438 355.570312 280.554688 352.425781 C 279.679688 349.007812 278.023438 345.917969 275.003906 343.96875 C 269.132812 340.878906 262.101562 341.609375 257.410156 346.410156 Z M 257.410156 346.410156 "/>
<path style=" stroke:none;fill-rule:nonzero;fill:rgb(0%,86.274511%,98.431373%);fill-opacity:1;" d="M 293.519531 457.410156 C 293.890625 457.136719 294.261719 456.859375 294.648438 456.574219 C 299.03125 453.730469 304.171875 453.542969 309.230469 454.40625 C 313.3125 455.523438 317.386719 457.625 319.910156 461.113281 C 320.480469 462.964844 320.589844 463.839844 319.820312 465.625 C 318.480469 467.28125 317.742188 467.949219 315.59375 468.3125 C 313.554688 468 312.9375 467.347656 311.480469 465.984375 C 308.714844 463.628906 305.324219 463.617188 301.851562 463.890625 C 301.078125 464.027344 300.304688 464.179688 299.535156 464.347656 C 299.671875 464.652344 299.804688 464.960938 299.945312 465.273438 C 301.984375 470.492188 302.316406 476.167969 300.433594 481.492188 C 298.988281 484.742188 297.027344 487.832031 293.980469 489.789062 C 292.015625 490.039062 291.085938 490.011719 289.410156 488.921875 C 288.128906 487.640625 287.992188 487.210938 287.730469 485.394531 C 287.734375 483.015625 289.023438 481.558594 290.453125 479.75 C 292.335938 477.09375 291.980469 473.480469 291.667969 470.363281 C 290.542969 467.3125 288.367188 465.558594 285.589844 464 C 282.496094 462.777344 278.910156 463.042969 275.882812 464.316406 C 274.859375 464.890625 274.019531 465.574219 273.121094 466.316406 C 271.746094 467.390625 271.417969 467.582031 269.585938 467.675781 C 267.71875 467.003906 266.886719 466.441406 265.742188 464.8125 C 265.355469 462.863281 265.308594 461.867188 266.292969 460.152344 C 268.796875 456.996094 272.710938 454.601562 276.691406 453.828125 C 283.207031 453.121094 287.765625 454.5 293.519531 457.410156 Z M 293.519531 457.410156 "/>
<path style=" stroke:none;fill-rule:nonzero;fill:rgb(0%,86.274511%,98.431373%);fill-opacity:1;" d="M 214.351562 386.648438 C 217.890625 388.515625 219.960938 392.621094 221.238281 396.25 C 222.683594 401.757812 221.863281 407.050781 219.195312 412.023438 C 218.25 413.625 217.234375 415.167969 216.203125 416.714844 C 216.441406 416.90625 216.675781 417.09375 216.917969 417.289062 C 221.316406 420.976562 224.410156 425.246094 225.191406 431.101562 C 225.261719 433.398438 225.226562 435.277344 223.609375 437.0625 C 222.121094 438.136719 220.78125 438.238281 218.980469 437.984375 C 217.546875 437.257812 217.046875 436.980469 216.203125 435.675781 C 215.777344 434.058594 215.496094 432.441406 215.195312 430.796875 C 214.453125 427.695312 212.746094 425.867188 210.125 424.140625 C 208.265625 423.039062 206.609375 422.675781 204.453125 422.644531 C 197.230469 422.464844 192.359375 421.238281 186.703125 416.511719 C 185.558594 415.117188 185.539062 413.367188 185.648438 411.625 C 186.46875 410.273438 187.019531 409.554688 188.425781 408.847656 C 191.125 408.460938 192.359375 408.84375 194.585938 410.441406 C 195.160156 410.882812 195.160156 410.882812 195.742188 411.332031 C 198.1875 413.140625 201.261719 412.742188 204.167969 412.550781 C 206.878906 411.941406 209.242188 410.273438 210.769531 407.96875 C 212.238281 405.121094 212.46875 402.296875 212.035156 399.136719 C 211.277344 396.792969 209.925781 394.992188 208.332031 393.125 C 207.671875 391.804688 207.726562 390.890625 207.867188 389.421875 C 209.597656 386.839844 211.246094 386.082031 214.351562 386.648438 Z M 214.351562 386.648438 "/>
</g>
</svg>
